<?xml version="1.0" standalone="no"?>
<!DOCTYPE svg PUBLIC "-//W3C//DTD SVG 20010904//EN"
 "http://www.w3.org/TR/2001/REC-SVG-20010904/DTD/svg10.dtd">
<svg version="1.0" xmlns="http://www.w3.org/2000/svg"
 width="260.000000pt" height="260.000000pt" viewBox="0 0 260.000000 260.000000"
 preserveAspectRatio="xMidYMid meet">
<metadata>
Created by potrace 1.14, written by Peter Selinger 2001-2017
</metadata>
<g transform="translate(0.000000,260.000000) scale(0.100000,-0.100000)"
fill="#000000" stroke="none">
<path d="M1015 2589 c-11 -6 -29 -22 -40 -37 -18 -25 -20 -47 -25 -247 -3
-152 -9 -227 -18 -242 -27 -47 -56 -53 -271 -53 -119 0 -209 -4 -223 -11 -13
-5 -33 -25 -46 -43 l-22 -32 0 -623 c0 -559 2 -626 16 -651 33 -56 53 -60 274
-60 298 0 289 10 290 -298 1 -198 3 -211 23 -240 12 -17 32 -36 45 -41 14 -7
121 -11 278 -11 368 0 354 -12 354 302 0 295 -7 288 285 288 306 0 295 -13
295 354 0 290 -4 311 -63 339 -30 15 -72 17 -289 17 -277 0 -287 -2 -325 -58
-21 -31 -22 -43 -22 -235 1 -118 -4 -213 -10 -229 -21 -56 -60 -68 -218 -68
-78 0 -153 4 -166 9 -14 5 -35 24 -47 41 -22 31 -22 31 -22 535 0 478 1 506
19 537 32 54 48 58 276 58 l207 0 38 34 37 34 3 271 c4 394 26 371 -355 370
-150 0 -266 -5 -278 -10z"/>
</g>
</svg>
