<svg width="16" height="16" viewBox="0 0 16 16" fill="none" xmlns="http://www.w3.org/2000/svg">
<path fill-rule="evenodd" clip-rule="evenodd" d="M2.3999 8C2.3999 7.84087 2.46312 7.68826 2.57564 7.57574C2.68816 7.46321 2.84077 7.4 2.9999 7.4H11.5103L8.1839 4.232C8.12443 4.17805 8.07639 4.11271 8.04262 4.03985C8.00886 3.967 7.99007 3.88811 7.98736 3.80785C7.98465 3.7276 7.99807 3.64762 8.02684 3.57265C8.0556 3.49768 8.09913 3.42925 8.15482 3.37141C8.21052 3.31357 8.27727 3.26749 8.3511 3.23592C8.42493 3.20435 8.50434 3.18791 8.58464 3.1876C8.66494 3.18728 8.74449 3.20308 8.81856 3.23407C8.89264 3.26506 8.95975 3.3106 9.0159 3.368L13.4159 7.568C13.474 7.62397 13.5202 7.69107 13.5517 7.7653C13.5833 7.83952 13.5995 7.91935 13.5995 8C13.5995 8.08065 13.5833 8.16048 13.5517 8.2347C13.5202 8.30893 13.474 8.37603 13.4159 8.432L9.0159 12.632C8.95975 12.6894 8.89264 12.7349 8.81856 12.7659C8.74449 12.7969 8.66494 12.8127 8.58464 12.8124C8.50434 12.8121 8.42493 12.7957 8.3511 12.7641C8.27727 12.7325 8.21052 12.6864 8.15482 12.6286C8.09913 12.5708 8.0556 12.5023 8.02684 12.4274C7.99807 12.3524 7.98465 12.2724 7.98736 12.1921C7.99007 12.1119 8.00886 12.033 8.04262 11.9601C8.07639 11.8873 8.12443 11.8219 8.1839 11.768L11.5103 8.6H2.9999C2.84077 8.6 2.68816 8.53679 2.57564 8.42426C2.46312 8.31174 2.3999 8.15913 2.3999 8Z" fill="#163C2E"/>
</svg>
