<svg width="24" height="24" viewBox="0 0 24 24" fill="none" xmlns="http://www.w3.org/2000/svg">
<path d="M15.1818 0.678131C14.7336 0.678131 14.3689 1.04651 14.3689 1.49909C14.3689 1.95167 14.7336 2.32005 15.1818 2.32005C15.6299 2.32005 15.9946 1.95167 15.9946 1.49909C15.9946 1.04651 15.6299 0.678131 15.1818 0.678131Z" fill="white"/>
<path d="M15.1818 4.46189C14.7336 4.46189 14.3689 4.83027 14.3689 5.28285C14.3689 5.73543 14.7336 6.10381 15.1818 6.10381C15.6299 6.10381 15.9946 5.73543 15.9946 5.28285C15.9946 4.83027 15.6299 4.46189 15.1818 4.46189Z" fill="white"/>
<path d="M15.1818 8.2454C14.7336 8.2454 14.3689 8.61378 14.3689 9.06636C14.3689 9.51894 14.7336 9.88732 15.1818 9.88732C15.6299 9.88732 15.9946 9.51894 15.9946 9.06636C15.9946 8.61378 15.6299 8.2454 15.1818 8.2454Z" fill="white"/>
<path d="M19.0019 0.678131C18.5538 0.678131 18.189 1.04651 18.189 1.49909C18.189 1.95167 18.5538 2.32005 19.0019 2.32005C19.45 2.32005 19.8148 1.95167 19.8148 1.49909C19.8148 1.04651 19.45 0.678131 19.0019 0.678131Z" fill="white"/>
<path d="M19.0023 4.46189C18.5542 4.46189 18.1894 4.83027 18.1894 5.28285C18.1894 5.73543 18.5542 6.10381 19.0023 6.10381C19.4504 6.10381 19.8151 5.73543 19.8151 5.28285C19.8151 4.83027 19.4504 4.46189 19.0023 4.46189Z" fill="white"/>
<path d="M19.0023 8.2454C18.5542 8.2454 18.1894 8.61378 18.1894 9.06636C18.1894 9.51894 18.5542 9.88732 19.0023 9.88732C19.4504 9.88732 19.8151 9.51894 19.8151 9.06636C19.8151 8.61378 19.4504 8.2454 19.0023 8.2454Z" fill="white"/>
<path d="M22.7546 0.678131C22.3065 0.678131 21.9418 1.04651 21.9418 1.49909C21.9418 1.95167 22.3065 2.32005 22.7546 2.32005C23.2027 2.32005 23.5675 1.95167 23.5675 1.49909C23.5727 1.04651 23.2079 0.678131 22.7546 0.678131Z" fill="white"/>
<path d="M22.755 4.46189C22.3069 4.46189 21.9421 4.83027 21.9421 5.28285C21.9421 5.73543 22.3069 6.10381 22.755 6.10381C23.2031 6.10381 23.5678 5.73543 23.5678 5.28285C23.5731 4.83027 23.2083 4.46189 22.755 4.46189Z" fill="white"/>
<path d="M22.755 8.2454C22.3069 8.2454 21.9421 8.61378 21.9421 9.06636C21.9421 9.51894 22.3069 9.88732 22.755 9.88732C23.2031 9.88732 23.5678 9.51894 23.5678 9.06636C23.5678 8.61378 23.2083 8.2454 22.755 8.2454Z" fill="white"/>
<path fill-rule="evenodd" clip-rule="evenodd" d="M0 5.25914C0 2.63074 2.13074 0.5 4.75913 0.5C7.38753 0.5 9.51827 2.63074 9.51827 5.25913V18.4967C9.51827 21.1251 7.38753 23.2559 4.75913 23.2559C2.13074 23.2559 0 21.1251 0 18.4967V5.25914ZM1.3608 18.3476C1.40451 16.445 2.96346 14.9377 4.8393 14.982C6.71878 15.0263 8.20488 16.6076 8.15753 18.5102C8.11382 20.4128 6.55487 21.9202 4.67903 21.8758C2.80319 21.8315 1.31709 20.2503 1.3608 18.3476ZM3.62476 19.6626H5.89761V17.3573H3.62476V19.6626ZM4.91179 1.96271C6.78866 2.00883 8.2758 3.58949 8.2334 5.49321C8.191 7.39692 6.63512 8.9028 4.75825 8.85667C2.88137 8.81055 1.39423 7.22989 1.43663 5.32617C1.47903 3.42246 3.03491 1.91658 4.91179 1.96271Z" fill="white"/>
<path fill-rule="evenodd" clip-rule="evenodd" d="M13.98 13.3801V23.5H24V13.3801H13.98ZM21.9641 20.7213H16.0188V19.4688H21.9641V20.7213ZM16.0188 17.406H21.9641V16.1535H16.0188V17.406Z" fill="white"/>
</svg>
