<svg width="24" height="24" viewBox="0 0 24 24" fill="none" xmlns="http://www.w3.org/2000/svg">
<path d="M8.43826 2L4.96244 4L1.5 2L4.96244 0L8.43826 2Z" fill="black"/>
<path d="M11.9148 3.99999L8.43894 5.99999L4.96313 3.99999L8.43894 1.99999L11.9148 3.99999Z" fill="black"/>
<path d="M15.3901 6.00001L11.9143 8.00001L8.43848 6.00001L11.9143 4.00001L15.3901 6.00001Z" fill="black"/>
<path d="M18.8654 8L15.3896 10L11.9138 8L15.3896 6L18.8654 8Z" fill="black"/>
<path d="M22.3277 9.99999L18.8652 12L15.3894 9.99999L18.8652 7.99999L22.3277 9.99999Z" fill="black"/>
<path d="M15.3896 14V18L11.9138 20V16L15.3896 14Z" fill="black"/>
<path d="M22.3284 10V14L18.866 16V12L22.3284 10Z" fill="black"/>
<path d="M8.43895 18V22L4.96313 24V20L8.43895 18Z" fill="black"/>
<path d="M8.43826 9.99999L4.96244 12L1.5 9.99999L4.96244 7.99999L8.43826 9.99999Z" fill="black"/>
<path d="M11.9148 12L8.43894 14L4.96313 12L8.43894 10L11.9148 12Z" fill="black"/>
<path d="M15.3901 14L11.9143 16L8.43848 14L11.9143 12L15.3901 14Z" fill="black"/>
<path d="M4.96245 0V4L1.5 6V2L4.96245 0Z" fill="black"/>
<path d="M4.96245 7.99999V12L1.5 14V9.99999L4.96245 7.99999Z" fill="black"/>
<path d="M8.43826 18L4.96244 20L1.5 18L4.96244 16L8.43826 18Z" fill="black"/>
<path d="M4.96245 16V20L1.5 22V18L4.96245 16Z" fill="black"/>
</svg>
