<svg width="24" height="24" viewBox="0 0 24 24" fill="none" xmlns="http://www.w3.org/2000/svg">
<path fill-rule="evenodd" clip-rule="evenodd" d="M12.8381 6.61133H12.5736C9.52786 6.61133 7.05884 9.14557 7.05884 12.2717V18.3396C7.05884 21.4658 9.52786 24 12.5736 24C15.6192 24 18.0883 21.4658 18.0883 18.3396C18.0883 18.1145 18.266 17.9321 18.4853 17.9321C21.531 17.9321 24 15.3978 24 12.2717C24 9.14557 21.531 6.61133 18.4853 6.61133H17.9117V9.82642H18.4853C19.8011 9.82642 20.8677 10.9212 20.8677 12.2717C20.8677 13.6222 19.8011 14.717 18.4853 14.717C16.5361 14.717 14.9559 16.3389 14.9559 18.3396C14.9559 19.6901 13.8893 20.7849 12.5736 20.7849C11.2578 20.7849 10.1912 19.6901 10.1912 18.3396V12.2717C10.1912 10.9212 11.2578 9.82642 12.5736 9.82642H12.8381V6.61133Z" fill="#22E095"/>
<path fill-rule="evenodd" clip-rule="evenodd" d="M5.51471 9.28302C7.46396 9.28302 9.04413 7.66111 9.04413 5.66038C9.04413 4.30988 10.1107 3.21509 11.4265 3.21509C12.7422 3.21509 13.8088 4.30989 13.8088 5.66038V11.7283C13.8088 13.0788 12.7422 14.1736 11.4265 14.1736H11.1618V17.3887H11.4265C14.4722 17.3887 16.9412 14.8544 16.9412 11.7283V5.66038C16.9412 2.53424 14.4722 0 11.4265 0C8.38079 0 5.91177 2.53424 5.91177 5.66038C5.91177 5.88546 5.734 6.06792 5.51471 6.06792C2.46902 6.06792 0 8.60216 0 11.7283C0 14.8544 2.46902 17.3887 5.51471 17.3887H6.08826V14.1736H5.51471C4.19897 14.1736 3.13236 13.0788 3.13236 11.7283C3.13236 10.3778 4.19898 9.28302 5.51471 9.28302Z" fill="white"/>
</svg>
