<svg width="20" height="28" viewBox="0 0 20 28" fill="none" xmlns="http://www.w3.org/2000/svg">
<path d="M6.25 1.27273C6.25 0.569819 6.80964 0 7.5 0H12.5C13.1904 0 13.75 0.56982 13.75 1.27273V6.36364C13.75 7.06654 13.1904 7.63636 12.5 7.63636H8.75C8.05964 7.63636 7.5 8.20618 7.5 8.90909V19.0909C7.5 19.7938 8.05964 20.3636 8.75 20.3636H11.25C11.9404 20.3636 12.5 19.7938 12.5 19.0909V15.2727C12.5 14.5698 13.0596 14 13.75 14H18.75C19.4404 14 20 14.5698 20 15.2727V20.3636C20 21.0665 19.4404 21.6364 18.75 21.6364H15C14.3096 21.6364 13.75 22.2062 13.75 22.9091V26.7273C13.75 27.4302 13.1904 28 12.5 28H7.5C6.80964 28 6.25 27.4302 6.25 26.7273V22.9091C6.25 22.2062 5.69036 21.6364 5 21.6364H1.25C0.559644 21.6364 0 21.0665 0 20.3636V7.63636C0 6.93346 0.559644 6.36364 1.25 6.36364H5C5.69036 6.36364 6.25 5.79382 6.25 5.09091V1.27273Z" fill="#00C67E"/>
</svg>
